<svg width="189" height="164" viewBox="0 0 189 164" fill="none" xmlns="http://www.w3.org/2000/svg">
<path d="M91.6294 60.0587C101.364 61.0114 110.322 65.7922 116.532 73.3496C122.742 80.9069 125.696 90.6216 124.743 100.357" stroke="#6D28D9" stroke-width="9" stroke-linecap="round" stroke-linejoin="round"/>
<path d="M94.3234 32.5294C111.36 34.1966 127.036 42.5631 137.903 55.7884C148.771 69.0137 153.94 86.0145 152.272 103.051" stroke="#5B21B6" stroke-width="9" stroke-linecap="round" stroke-linejoin="round"/>
<path d="M97.0175 5C109.068 6.17931 120.769 9.72063 131.451 15.4218C142.133 21.1229 151.587 28.8722 159.275 38.2272C166.962 47.5822 172.731 58.3598 176.253 69.9444C179.775 81.5291 180.981 93.6941 179.802 105.745" stroke="#4C1D95" stroke-width="9" stroke-linecap="round" stroke-linejoin="round"/>
<path opacity="0.9" d="M96.9406 95.3197C96.5955 98.8459 93.4572 101.425 89.931 101.08C86.4049 100.734 83.8261 97.5962 84.1712 94.07C84.5162 90.5439 87.6545 87.9651 91.1807 88.3102C94.7069 88.6552 97.2857 91.7935 96.9406 95.3197Z" fill="#7C3AED" stroke="#7C3AED"/>
<path d="M63.3776 120.16C63.0895 120.911 62.4935 121.508 61.7208 121.82C60.948 122.133 60.0618 122.134 59.2571 121.826L34.984 112.508C34.1793 112.199 33.522 111.605 33.1568 110.856C32.7915 110.106 32.7481 109.264 33.0362 108.513C33.3243 107.763 33.9203 107.166 34.693 106.853C35.4657 106.541 36.3519 106.539 37.1566 106.848L61.4297 116.166C62.2344 116.475 62.8917 117.069 63.257 117.818C63.6223 118.567 63.6657 119.41 63.3776 120.16ZM57.0845 127.485L32.8114 118.168C32.0067 117.859 31.1205 117.861 30.3478 118.173C29.5751 118.485 28.9791 119.082 28.691 119.833C28.4029 120.584 28.4463 121.426 28.8115 122.175C29.1768 122.924 29.8341 123.519 30.6388 123.828L54.9119 133.145C55.7166 133.454 56.6028 133.452 57.3755 133.14C58.1483 132.828 58.7442 132.231 59.0324 131.48C59.3205 130.729 59.2771 129.887 58.9118 129.138C58.5465 128.389 57.8892 127.794 57.0845 127.485ZM93.5317 96.0194L71.8057 152.618C70.6532 155.62 68.2693 158.008 65.1784 159.257C62.0875 160.507 58.5427 160.514 55.3239 159.279L12.846 142.973C9.62719 141.737 6.99801 139.36 5.53685 136.363C4.07569 133.367 3.90224 129.997 5.05466 126.994L26.7807 70.3961C27.0688 69.6456 27.6648 69.0485 28.4375 68.7362C29.2103 68.4239 30.0965 68.422 30.9012 68.7309L40.0036 72.225L41.0899 69.3951C41.378 68.6445 41.9739 68.0474 42.7467 67.7351C43.5194 67.4228 44.4056 67.4209 45.2103 67.7298C46.015 68.0387 46.6723 68.6331 47.0376 69.3823C47.4029 70.1314 47.4462 70.9739 47.1581 71.7245L46.0718 74.5544L58.2084 79.2131L59.2947 76.3832C59.5828 75.6327 60.1788 75.0356 60.9515 74.7233C61.7242 74.411 62.6104 74.4091 63.4151 74.718C64.2198 75.0269 64.8771 75.6213 65.2424 76.3704C65.6077 77.1196 65.6511 77.9621 65.363 78.7126L64.2767 81.5425L76.4132 86.2013L77.4995 83.3714C77.7876 82.6209 78.3836 82.0238 79.1563 81.7115C79.929 81.3992 80.8152 81.3973 81.6199 81.7062C82.4246 82.0151 83.0819 82.6095 83.4472 83.3586C83.8125 84.1078 83.8559 84.9503 83.5678 85.7008L82.4815 88.5307L91.5839 92.0248C92.3886 92.3337 93.0459 92.9281 93.4112 93.6772C93.7765 94.4264 93.8198 95.2689 93.5317 96.0194ZM86.3771 96.5199L80.3089 94.1905L79.2226 97.0205C78.9345 97.771 78.3385 98.3681 77.5658 98.6804C76.793 98.9927 75.9068 98.9946 75.1021 98.6857C74.2974 98.3768 73.6401 97.7824 73.2748 97.0333C72.9095 96.2841 72.8662 95.4416 73.1543 94.6911L74.2406 91.8612L62.104 87.2024L61.0177 90.0323C60.7296 90.7828 60.1337 91.3799 59.3609 91.6922C58.5882 92.0045 57.702 92.0064 56.8973 91.6975C56.0926 91.3886 55.4353 90.7942 55.07 90.0451C54.7047 89.2959 54.6614 88.4534 54.9495 87.7029L56.0358 84.873L43.8992 80.2142L42.8129 83.0441C42.5248 83.7947 41.9289 84.3917 41.1561 84.704C40.3834 85.0163 39.4972 85.0182 38.6925 84.7093C37.8878 84.4004 37.2305 83.806 36.8652 83.0569C36.4999 82.3078 36.4566 81.4653 36.7447 80.7147L37.831 77.8848L31.7627 75.5554L11.1229 129.324C10.5467 130.825 10.6334 132.51 11.364 134.008C12.0946 135.506 13.4092 136.695 15.0186 137.313L57.4965 153.619C59.1059 154.237 60.8783 154.233 62.4238 153.608C63.9692 152.984 65.1612 151.789 65.7374 150.288L86.3771 96.5199Z" fill="#7C3AED"/>
</svg>
